<svg xmlns="http://www.w3.org/2000/svg" viewBox="0 0 24 24">
  <path fill="#C3996B" d="M23.9 11c.1-.3.1-.7 0-1-.2-.7-.7-1.4-.6-2.2 0-.3.2-.7 0-1-.1-.3-.4-.4-.6-.5h-.2c-.2-.4-.5-.8-.8-1.2-.1-.7-.4-1.3-.8-1.9-.7-.8-1.7-1.3-2.7-1.4-.8-.5-1.7-.9-2.6-1.2-.1-.2-.5-.4-.8-.5-.4-.1-.7 0-1.1.1-.5-.1-1.1-.1-1.6-.1s-.9 0-1.3.1c-.1-.1-.2-.1-.4-.2-.8-.3-1.8 0-2.5.4-.4.3-.8.6-1.1 1-.4.3-.9.6-1.3.8-.3 0-.7.1-1 .3-.7.4-1.1 1.1-1.5 1.8 0 .1-.1.3-.1.4-.3.3-.5.6-.7.9h-.1C1.3 6.2.9 7.1.6 7.9.4 8.5.1 9.1.1 9.8c0 .4.1.7.2 1 0 .4-.1.8-.1 1.2 0 .6.1 1.2.1 1.7-.1.1-.2.3-.3.4-.2.4-.2.9 0 1.3.2.3.5.4.7.7.2.3.2.7.4 1 .1.2.2.3.4.4.4.9 1 1.7 1.6 2.4 0 .2 0 .5.1.7.3.6.5.7 1.1.6.7.6 1.4 1 2.2 1.4.7.6 1.4 1.1 2.3 1.3.5.1 1 0 1.4-.1.5.1 1.1.1 1.6.1s.9 0 1.3-.1c.3.1.7.2 1.1.1.5-.1.9-.3 1.2-.6.5-.2 1.1-.4 1.6-.6.6 0 1.3-.2 1.7-.6.3-.3.5-.6.7-1 .5-.4 1-.9 1.5-1.5h.1c.9-.8 1.6-1.8 2.1-2.9.4-.8.7-1.6.6-2.5 0-.2-.1-.4-.1-.6.1-.5.1-1 .1-1.6.3-.3.2-.7.2-1z"/>
  <path d="M23.9 13.7c.1-.5.1-.9.1-1.4-.1.7-.3 1.4-.6 2-.5 1.1-1.1 2.2-2.1 2.9h-.1c-.4.5-.9 1-1.4 1.4-.2.4-.4.7-.7 1-.5.4-1.1.6-1.8.6l-1.5.6c-.3.3-.8.6-1.2.6-.4.1-.7 0-1.1-.1-.4 0-.9.1-1.3.1-.6 0-1.1 0-1.7-.1-.5.1-.9.2-1.4.1-.9-.1-1.6-.7-2.3-1.2-.8-.4-1.5-.9-2.2-1.5-.6.1-.8 0-1.1-.6-.1-.2-.2-.4-.2-.7-.6-.7-1.2-1.5-1.6-2.4-.2-.1-.3-.2-.4-.4-.2-.3-.2-.7-.4-1-.1-.2-.3-.3-.5-.5 0 .2 0 .4.1.5-.1.1-.2.3-.3.4-.2.4-.2.9 0 1.3.2.3.5.4.7.7.2.3.2.7.4 1 .1.2.2.3.4.4.4.9 1 1.7 1.6 2.4 0 .2.1.5.2.7.3.6.5.7 1.1.6.7.6 1.4 1 2.2 1.5.7.6 1.4 1.1 2.3 1.2.5.1.9 0 1.4-.1.5.1 1.1.1 1.7.1.4 0 .9 0 1.3-.1.3.1.7.2 1.1.1.5-.1.9-.3 1.2-.6l1.5-.6c.6 0 1.3-.2 1.8-.6.3-.3.5-.6.7-1 .5-.4 1-.9 1.4-1.4h.1c.9-.8 1.6-1.8 2.1-2.9.4-.8.7-1.6.6-2.5-.1-.2-.1-.3-.1-.5z" opacity=".05"/>
  <path fill="#FFF" d="M.6 9.3c.3-.8.7-1.7 1.5-2.2 0 0 .1 0 .1-.1.2-.3.5-.7.7-1 0 0 .1-.2.1-.3.4-.7.8-1.4 1.5-1.8.3-.2.6-.3 1-.3.4-.3.9-.6 1.4-.8.3-.3.6-.7 1.1-.9.7-.4 1.7-.6 2.5-.4.1 0 .3.1.4.2.4 0 .9-.1 1.3-.1.6 0 1.1 0 1.6.1.3-.1.7-.1 1-.1.4.1.7.2.8.5.9.3 1.8.7 2.6 1.1 1 .1 2 .6 2.7 1.4.4.5.7 1.2.8 1.8.3.4.5.8.8 1.2h.3c.3.1.5.2.6.4v-.4c0-.3.2-.7 0-1-.1-.3-.4-.4-.6-.5h-.3c-.2-.4-.5-.8-.8-1.2-.1-.7-.4-1.3-.8-1.8-.7-.8-1.7-1.3-2.7-1.4-.8-.5-1.7-.9-2.6-1.1-.1-.2-.5-.4-.8-.5-.3 0-.7 0-1 .1-.5-.1-1.1-.1-1.6-.1-.4 0-.9 0-1.3.1-.1-.1-.3-.1-.4-.2-.8-.3-1.8 0-2.5.4-.5.3-.8.7-1.1 1-.5.3-1 .5-1.4.8-.3 0-.7.1-1 .3-.7.4-1.1 1.1-1.5 1.8 0 .1-.1.2-.1.3-.3.4-.5.7-.7 1 0 0-.1 0-.1.1C1.3 6.1.9 7 .6 7.9.4 8.5.1 9.1.1 9.7c0 .2 0 .5.1.7.1-.4.3-.7.4-1.1z" opacity=".1"/>
  <path fill="#754C28" d="M5.7 8.6L4.3 9.8l1.9 1.6 1.4-1L7.3 9zM11.3 5.9l-.1 1.2 1.2.5.7-1-.8-.7zM8.1 19.2L8 20l1.7.5.4-1.7-1-.2zM20.1 8.4l-1.7-.1-.6.6.4.7 1.6.4zM16.3 11.9l-1.5-.8-.8.4v1.4l1.6.4zM8.6 14.4v1.3l2 .3.8-1.4-1.2-1zM17.8 3.7l-1.7.4-.4 1.8 1.6.3 1-.9zM14.4 18.1l-.1 1.3 1.7.4.4-.6-.6-1.4zM3.5 14.6l-.2 1.3.9.6 1-1-.6-.6zM20.5 12.8l-.8 1.1 1 1 1.3-.4v-1.7zM8.2 5.2l.2-1-.7-.7-1.2.6.6 1.4z"/>
</svg>
