<?xml version="1.0" encoding="UTF-8" standalone="no"?>
<svg
   xmlns:dc="http://purl.org/dc/elements/1.1/"
   xmlns:cc="http://creativecommons.org/ns#"
   xmlns:rdf="http://www.w3.org/1999/02/22-rdf-syntax-ns#"
   xmlns:svg="http://www.w3.org/2000/svg"
   xmlns="http://www.w3.org/2000/svg"
   xmlns:xlink="http://www.w3.org/1999/xlink"
   xmlns:sodipodi="http://sodipodi.sourceforge.net/DTD/sodipodi-0.dtd"
   xmlns:inkscape="http://www.inkscape.org/namespaces/inkscape"
   sodipodi:docname="og-image.svg"
   inkscape:version="1.0 (4035a4fb49, 2020-05-01)"
   inkscape:export-ydpi="96"
   inkscape:export-xdpi="96"
   inkscape:export-filename="C:\Users\Administrator\Documents\GitHub\WebDevelopment\MilenkoRaic\Source\MilenkoRaic\Webpack\public\img\og-image.png"
   id="svg8"
   version="1.1"
   viewBox="0 0 317.49999 166.6875"
   height="630"
   width="1200">
  <defs
     id="defs2">
    <linearGradient
       id="linearGradient1006"
       inkscape:collect="always">
      <stop
         id="stop1002"
         offset="0"
         style="stop-color:#1a1a1a;stop-opacity:1;" />
      <stop
         id="stop1004"
         offset="1"
         style="stop-color:#1a1a1a;stop-opacity:0;" />
    </linearGradient>
    <linearGradient
       gradientUnits="userSpaceOnUse"
       y2="87.129868"
       x2="205.68299"
       y1="87.129868"
       x1="105.95327"
       id="linearGradient1008"
       xlink:href="#linearGradient1006"
       inkscape:collect="always" />
  </defs>
  <sodipodi:namedview
     inkscape:window-maximized="1"
     inkscape:window-y="-8"
     inkscape:window-x="-8"
     inkscape:window-height="837"
     inkscape:window-width="1600"
     units="px"
     showgrid="false"
     inkscape:document-rotation="0"
     inkscape:current-layer="layer1"
     inkscape:document-units="mm"
     inkscape:cy="388.6584"
     inkscape:cx="666.04942"
     inkscape:zoom="0.7"
     inkscape:pageshadow="2"
     inkscape:pageopacity="0.0"
     borderopacity="1.0"
     bordercolor="#666666"
     pagecolor="#ffffff"
     id="base" />
  <metadata
     id="metadata5">
    <rdf:RDF>
      <cc:Work
         rdf:about="">
        <dc:format>image/svg+xml</dc:format>
        <dc:type
           rdf:resource="http://purl.org/dc/dcmitype/StillImage" />
        <dc:title></dc:title>
      </cc:Work>
    </rdf:RDF>
  </metadata>
  <g
     id="layer1"
     inkscape:groupmode="layer"
     inkscape:label="Layer 1">
    <rect
       y="0.53453904"
       x="0.53453904"
       height="166.77618"
       width="317.5162"
       id="rect10"
       style="fill:#000000;stroke-width:1;stroke-linejoin:round;fill-opacity:1" />
    <ellipse
       ry="49.162533"
       rx="49.864857"
       cy="87.129868"
       cx="155.81813"
       id="path998"
       style="fill:url(#linearGradient1008);fill-opacity:1;stroke-width:0.875922;stroke-linejoin:round" />
    <path
       style="fill:#a649c4;fill-opacity:1;stroke:none;stroke-width:1.90768;stroke-linecap:butt;stroke-linejoin:miter;stroke-miterlimit:4;stroke-dasharray:none;stroke-opacity:1"
       d="m 114.61415,108.08119 h 17.99011 l 9.56553,-21.033632 -2.37817,-5.179129 -9.8934,22.407691 h -8.59496 l 16.90292,-36.95871 16.46223,35.90173 7.84796,-16.171582 -2.8538,-5.179129 -4.99416,10.701778 -16.46223,-36.068943 z"
       id="path897" />
    <path
       style="fill:#8e52cb;fill-opacity:1;stroke:none;stroke-width:1.90768;stroke-linecap:butt;stroke-linejoin:miter;stroke-miterlimit:4;stroke-dasharray:none;stroke-opacity:1"
       d="m 147.10681,64.944452 2.51459,5.614454 5.04701,-11.547342 22.38123,49.069626 h 18.0741 l -23.54,-51.579926 -4.06392,8.891622 2.28961,5.16602 1.77431,-3.289804 16.86791,37.007018 h -8.25754 l -25.5257,-56.222621 z"
       id="path899"
       sodipodi:nodetypes="ccccccccccccc" />
    <g
       transform="matrix(-1.2803229,-0.2417654,0.2417654,-1.2803229,420.39272,255.27056)"
       style="font-style:normal;font-weight:normal;font-size:10.5833px;line-height:1.25;font-family:sans-serif;letter-spacing:0px;word-spacing:0px;white-space:pre;fill:#000000;fill-opacity:1;stroke:none;stroke-width:0.264583"
       id="text873"
       aria-label="www.milenkoraic.me">
      <path
         id="path931"
         style="fill:#ffffff;stroke-width:0.264583"
         d="m 269.41442,97.525726 -5.58289,-2.100336 0.0942,-0.894218 4.58024,-1.008728 -4.27051,-1.930882 0.0937,-0.889078 5.89966,-0.906083 -0.10613,1.007279 -4.5564,0.585149 4.29432,1.902214 -0.0839,0.796572 -4.60025,1.001424 4.34034,1.465382 z" />
      <path
         id="path933"
         style="fill:#ffffff;stroke-width:0.264583"
         d="m 266.54032,107.00358 -5.01379,-3.2314 0.28084,-0.85419 4.68996,-0.0192 -3.76674,-2.78877 0.27922,-0.849272 5.95799,0.359583 -0.31634,0.962189 -4.57725,-0.38976 3.79606,2.76576 -0.25017,0.76091 -4.70799,0.008 3.93326,2.34849 z" />
      <path
         id="path935"
         style="fill:#ffffff;stroke-width:0.264583"
         d="m 261.75144,115.64704 -4.23585,-4.19972 0.45165,-0.7775 4.59227,0.95248 -3.10752,-3.50841 0.44906,-0.77303 5.75434,1.58571 -0.50876,0.8758 -4.39729,-1.32927 3.14097,3.49198 -0.40234,0.6926 -4.60754,-0.96733 3.3616,3.11217 z" />
      <path
         id="path937"
         style="fill:#ffffff;stroke-width:0.264583"
         d="m 254.98183,114.72873 0.77151,-0.96445 1.15007,0.92 -0.7715,0.96445 z" />
      <path
         id="path939"
         style="fill:#ffffff;stroke-width:0.264583"
         d="m 247.33088,122.16248 0.72777,-0.64357 2.1772,2.46203 q 0.24648,0.27872 0.50294,0.51412 0.25258,0.23883 0.47081,0.32178 0.23623,0.0877 0.478,0.0257 0.24177,-0.062 0.55533,-0.33932 0.30582,-0.27044 0.47471,-0.69572 0.17231,-0.42142 0.26931,-0.92799 -0.0904,-0.0788 -0.20421,-0.19193 -0.11044,-0.10928 -0.21314,-0.22542 l -2.44764,-2.76785 0.72777,-0.64357 2.1772,2.46203 q 0.25332,0.28646 0.50636,0.51799 0.25258,0.23883 0.47081,0.32178 0.23623,0.0877 0.47458,0.0218 0.24177,-0.062 0.55533,-0.33932 0.29808,-0.26359 0.46994,-0.67771 0.16799,-0.4107 0.2641,-0.90268 l -2.85501,-3.22852 0.72777,-0.64357 3.82379,4.32404 -0.72777,0.64357 -0.42448,-0.48002 q -0.0908,0.58384 -0.2872,1.04038 -0.2003,0.45997 -0.58354,0.79887 -0.44131,0.39026 -0.91145,0.47488 -0.474,0.088 -0.91595,-0.10749 -0.11268,0.76188 -0.33279,1.24626 -0.21668,0.48824 -0.63089,0.85453 -0.71229,0.62988 -1.43248,0.49414 -0.72064,-0.12844 -1.4053,-0.90267 z" />
      <path
         id="path941"
         style="fill:#ffffff;stroke-width:0.264583"
         d="m 248.36267,129.30587 0.92639,-0.58481 0.53792,0.8521 -0.9264,0.58481 z m -3.54468,-5.73128 0.82151,-0.51861 3.08128,4.88104 -0.82152,0.5186 z" />
      <path
         id="path943"
         style="fill:#ffffff;stroke-width:0.264583"
         d="m 242.28279,125.0116 0.85641,-0.4587 3.79643,7.08817 -0.85641,0.45869 z" />
      <path
         id="path945"
         style="fill:#ffffff;stroke-width:0.264583"
         d="m 237.10847,130.2885 3.95214,-1.57106 q -0.19662,-0.49462 -0.49247,-0.80521 -0.29395,-0.30578 -0.6468,-0.438 -0.34134,-0.13123 -0.72811,-0.11095 -0.39156,0.0222 -0.80455,0.18636 -0.54744,0.21762 -1.01378,0.65325 -0.46923,0.44233 -0.62054,0.74716 l -0.048,0.0191 -0.39133,-0.98443 q 0.37984,-0.37343 0.80371,-0.69208 0.42386,-0.31864 0.94729,-0.52672 1.33499,-0.53068 2.37046,-0.10816 1.03738,0.42732 1.56616,1.75751 0.52305,1.31577 0.11488,2.37335 -0.41298,1.05948 -1.58469,1.52526 -1.08528,0.43143 -1.92312,0.0304 -0.84264,-0.39908 -1.30651,-1.56599 z m 1.15368,0.34217 q 0.28732,0.7088 0.79731,0.95651 0.50517,0.24962 1.22549,-0.0367 0.72512,-0.28825 0.98741,-0.88745 0.2575,-0.59728 0.0631,-1.25407 z" />
      <path
         id="path947"
         style="fill:#ffffff;stroke-width:0.264583"
         d="m 229.94517,129.16173 0.94848,-0.21029 0.71142,3.20869 q 0.0861,0.38847 0.20648,0.71643 0.12147,0.333 0.28506,0.49786 0.1731,0.18394 0.4326,0.23226 0.26061,0.0534 0.63899,-0.0305 0.38847,-0.0861 0.76976,-0.37181 0.38128,-0.28567 0.70376,-0.66947 l -0.93289,-4.20762 0.94848,-0.21029 1.24945,5.63539 -0.94848,0.21029 -0.13871,-0.62559 q -0.36231,0.46672 -0.79069,0.77872 -0.42838,0.312 -0.92785,0.42274 -0.91316,0.20246 -1.51437,-0.2412 -0.60121,-0.44365 -0.83052,-1.4779 z" />
      <path
         id="path949"
         style="fill:#ffffff;stroke-width:0.264583"
         d="m 222.8514,129.71652 1.27919,-0.0781 2.46487,2.38111 0.59273,-0.63678 -0.11753,-1.92393 0.9697,-0.0592 0.49029,8.02586 -0.9697,0.0592 -0.31447,-5.14769 -2.62466,3.05442 -1.22245,0.0747 2.51442,-2.82507 z" />
      <path
         id="path951"
         style="fill:#ffffff;stroke-width:0.264583"
         d="m 216.76117,132.06147 q 0.12846,-1.40491 0.92327,-2.15212 0.79481,-0.74722 2.00416,-0.63664 1.21964,0.11153 1.86575,0.9905 0.64097,0.8785 0.51251,2.2834 -0.12846,1.4049 -0.91812,2.15258 -0.79528,0.75237 -2.01492,0.64084 -1.20935,-0.11058 -1.85499,-0.99469 -0.64612,-0.87897 -0.51766,-2.28387 z m 0.99836,0.0913 q -0.10211,1.11672 0.2859,1.69706 0.38755,0.58549 1.16462,0.65655 0.78736,0.072 1.27466,-0.4335 0.48169,-0.50082 0.5838,-1.61754 0.0988,-1.08069 -0.28732,-1.68162 -0.3866,-0.59578 -1.16882,-0.66731 -0.77192,-0.0706 -1.2597,0.44006 -0.49339,0.51532 -0.59314,1.6063 z" />
      <path
         id="path953"
         style="fill:#ffffff;stroke-width:0.264583"
         d="m 210.98853,132.65942 0.0504,0.0114 q 0.20024,0.0984 0.39725,0.16429 0.19083,0.0698 0.46297,0.13151 0.43844,0.0995 0.89123,-0.005 0.45165,-0.0989 0.89935,-0.3206 l 0.90647,-3.99641 0.94745,0.2149 -1.27684,5.62925 -0.94744,-0.2149 0.18861,-0.83154 q -0.66732,0.32554 -1.13798,0.41484 -0.47684,0.0932 -0.92537,-0.009 -0.24694,-0.056 -0.35438,-0.0963 -0.10859,-0.0352 -0.32233,-0.1208 z" />
      <path
         id="path955"
         style="fill:#ffffff;stroke-width:0.264583"
         d="m 207.11399,126.28172 0.90609,0.3359 -0.21375,0.5766 q 0.15167,-0.0375 0.41571,-0.11044 0.25739,-0.0699 0.48354,-0.0853 0.26904,-0.027 0.59156,0.01 0.32431,0.032 0.72163,0.17933 0.73166,0.27123 1.0608,0.94437 0.32915,0.67315 0.0507,1.42419 -0.22811,0.61536 -0.62987,0.89631 -0.4084,0.28399 -0.97862,0.32062 -0.57506,0.0348 -1.29669,-0.1445 -0.72163,-0.17934 -1.53065,-0.43515 l -0.0521,0.14051 q -0.11496,0.31011 -0.0789,0.55493 0.0311,0.24302 0.19155,0.43475 0.1525,0.1833 0.40948,0.32265 0.25697,0.13935 0.55254,0.24892 0.35856,0.13292 0.83542,0.19947 0.47506,0.0714 1.01152,0.0663 l 0.0485,0.018 -0.34308,0.92547 q -0.29344,-0.0261 -0.8297,-0.1257 -0.53625,-0.0996 -1.02564,-0.28101 -0.57176,-0.21195 -0.95738,-0.46513 -0.39227,-0.25013 -0.61795,-0.59282 -0.22264,-0.33605 -0.25141,-0.74904 -0.0288,-0.41299 0.16522,-0.9363 z m 0.41213,1.66838 -0.55862,1.50692 q 0.42568,0.13025 1.01056,0.29196 0.58003,0.1599 0.94364,0.18998 0.43379,0.034 0.76408,-0.11356 0.32849,-0.14277 0.48117,-0.55463 0.17243,-0.46516 -0.0206,-0.80676 -0.19481,-0.33676 -0.77142,-0.55051 -0.47969,-0.17783 -0.94527,-0.14099 -0.46738,0.0417 -0.90355,0.17759 z" />
      <path
         id="path957"
         style="fill:#ffffff;stroke-width:0.264583"
         d="m 201.45082,130.97374 0.97714,0.49538 -0.45565,0.89878 -0.97715,-0.49537 z m 3.10233,-5.98229 0.86652,0.43929 -2.61006,5.14843 -0.86652,-0.4393 z" />
      <path
         id="path959"
         style="fill:#ffffff;stroke-width:0.264583"
         d="m 199.05801,122.07989 q 0.53428,0.0677 0.97348,0.19704 0.43486,0.12655 0.84751,0.3925 0.52559,0.33873 0.86632,0.7735 0.33793,0.43911 0.44912,0.95341 0.11554,0.51711 -0.0186,1.10689 -0.13419,0.58978 -0.5457,1.2283 -0.76704,1.19018 -1.8553,1.44788 -1.09261,0.25491 -2.1655,-0.43655 -0.41699,-0.26874 -0.74103,-0.64356 -0.32838,-0.37763 -0.55367,-0.76259 l 0.58508,-0.90783 0.0434,0.028 q 0.18599,0.53178 0.48484,0.9457 0.29449,0.41112 0.67239,0.65467 0.695,0.4479 1.4013,0.23913 0.69915,-0.20723 1.28143,-1.11072 0.56548,-0.87743 0.47968,-1.60284 -0.0929,-0.72386 -0.8053,-1.18296 -0.2476,-0.15957 -0.54586,-0.25958 -0.29827,-0.10001 -0.56961,-0.12733 -0.23688,-0.0236 -0.45764,-0.0244 -0.22356,0.003 -0.36237,0.0185 l -0.0434,-0.028 z" />
      <path
         id="path961"
         style="fill:#ffffff;stroke-width:0.264583"
         d="m 197.06433,119.96254 0.95514,0.783 -0.93372,1.13897 -0.95513,-0.78301 z" />
      <path
         id="path963"
         style="fill:#ffffff;stroke-width:0.264583"
         d="m 189.72272,112.22314 0.63481,0.73542 -2.48794,2.14756 q -0.28165,0.24312 -0.52011,0.49673 -0.24183,0.24971 -0.32739,0.46693 -0.0905,0.23516 -0.0314,0.47766 0.0591,0.2425 0.33264,0.55936 0.26676,0.30903 0.68999,0.483 0.41931,0.17735 0.92469,0.28041 0.0798,-0.0894 0.19436,-0.2019 0.1106,-0.10912 0.22796,-0.21042 l 2.79697,-2.41431 0.63481,0.73543 -2.48794,2.14755 q -0.28947,0.24987 -0.52402,0.50011 -0.24183,0.24971 -0.3274,0.46693 -0.0905,0.23516 -0.0275,0.47428 0.0591,0.2425 0.33265,0.55936 0.26,0.30121 0.67203,0.47802 0.40865,0.1729 0.89945,0.27489 l 3.26249,-2.81613 0.63481,0.73543 -4.36954,3.77172 -0.63481,-0.73542 0.48507,-0.41871 q -0.58271,-0.0977 -1.03687,-0.29963 -0.45753,-0.2058 -0.79182,-0.59308 -0.38493,-0.44595 -0.46392,-0.91706 -0.0824,-0.47503 0.11845,-0.91461 -0.76047,-0.12179 -1.24218,-0.34768 -0.48561,-0.22252 -0.84691,-0.64109 -0.62131,-0.71978 -0.47695,-1.4383 0.13707,-0.71905 0.91944,-1.39438 z" />
      <path
         id="path965"
         style="fill:#ffffff;stroke-width:0.264583"
         d="m 184.01823,107.69862 2.07443,3.71273 q 0.46465,-0.25961 0.73388,-0.59355 0.26471,-0.33141 0.34965,-0.69852 0.0855,-0.35557 0.0148,-0.73636 -0.0732,-0.3853 -0.28998,-0.77327 -0.28735,-0.51428 -0.78022,-0.91964 -0.4999,-0.40736 -0.8219,-0.5175 l -0.0252,-0.0451 0.9248,-0.51672 q 0.4199,0.32774 0.79124,0.7063 0.37134,0.37855 0.64608,0.87028 0.70072,1.25412 0.41724,2.33595 -0.28798,1.08436 -1.53759,1.78256 -1.23608,0.69063 -2.33795,0.42427 -1.10439,-0.27087 -1.71941,-1.37161 -0.56965,-1.01953 -0.28167,-1.90262 0.28545,-0.88759 1.38167,-1.50009 z m -0.18835,1.18852 q -0.66514,0.37755 -0.84403,0.91555 -0.18141,0.53348 0.19668,1.21017 0.3806,0.68119 1.00895,0.86287 0.62583,0.17717 1.25156,-0.10141 z" />
    </g>
    <text
       id="text988"
       y="124.62709"
       x="108.94242"
       style="font-style:normal;font-weight:normal;font-size:12.018px;line-height:1.25;font-family:sans-serif;letter-spacing:0px;word-spacing:0px;fill:#ffffff;fill-opacity:1;stroke:none;stroke-width:0.300455"
       xml:space="preserve"><tspan
         sodipodi:role="line"
         style="fill:#ffffff;stroke-width:0.300455"
         y="124.62709"
         x="108.94242"
         id="tspan986">VÄLJ DIN SIDA</tspan></text>
  </g>
</svg>
